<?xml version="1.0" encoding="UTF-8"?>
<svg class="js-calendar-graph-svg" viewBox="0 0 828 128" xmlns="http://www.w3.org/2000/svg"><style>
  text { font-family: sans-serif;
  }
  rect { --color-calendar-graph-day-bg: #ebedf0; --color-calendar-graph-day-L1-bg: #9be9a8; --color-calendar-graph-day-L2-bg: #40c463; --color-calendar-graph-day-L3-bg: #30a14e; --color-calendar-graph-day-L4-bg: #216e39;
 --color-calendar-halloween-graph-day-L1-bg: #ffee4a; --color-calendar-halloween-graph-day-L2-bg: #ffc501; --color-calendar-halloween-graph-day-L3-bg: #fe9600; --color-calendar-halloween-graph-day-L4-bg: #03001c;
 --color-calendar-graph-day-border: rgba(27, 31, 35, 0.06); --color-calendar-graph-day-L4-border: rgba(27, 31, 35, 0.06); --color-calendar-graph-day-L3-border: rgba(27, 31, 35, 0.06); --color-calendar-graph-day-L2-border: rgba(27, 31, 35, 0.06); --color-calendar-graph-day-L1-border: rgba(27, 31, 35, 0.06);
 shape-rendering: geometricPrecision; outline: 1px solid var(--color-calendar-graph-day-border); outline-offset: -1px; box-sizing: border-box;
  }
</style>
  <g transform="translate(10, 20)" data-hydro-click="{&quot;event_type&quot;:&quot;user_profile.click&quot;,&quot;payload&quot;:{&quot;profile_user_id&quot;:5278201,&quot;target&quot;:&quot;CONTRIBUTION_CALENDAR_SQUARE&quot;,&quot;user_id&quot;:5278201,&quot;originating_url&quot;:&quot;https://github.com/users/x86chi/contributions&quot;}}" data-hydro-click-hmac="c8ee29f0db80b5f6996232e69bb8cf4a97f998638a25c1336147df7ad621ab55"><g transform="translate(126, 0)">
    <rect class="day" width="10" height="10" x="5" y="0" fill="var(--color-calendar-graph-day-L2-bg)" data-count="8" data-date="2019-12-29"/>
    <rect class="day" width="10" height="10" x="5" y="13" fill="var(--color-calendar-graph-day-L2-bg)" data-count="10" data-date="2019-12-30"/>
    <rect class="day" width="10" height="10" x="5" y="26" fill="var(--color-calendar-graph-day-L2-bg)" data-count="8" data-date="2019-12-31"/>
    <rect class="day" width="10" height="10" x="5" y="39" fill="var(--color-calendar-graph-day-L2-bg)" data-count="10" data-date="2020-01-01"/>
    <rect class="day" width="10" height="10" x="5" y="52" fill="var(--color-calendar-graph-day-L3-bg)" data-count="15" data-date="2020-01-02"/>
    <rect class="day" width="10" height="10" x="5" y="65" fill="var(--color-calendar-graph-day-L4-bg)" data-count="22" data-date="2020-01-03"/>
    <rect class="day" width="10" height="10" x="5" y="78" fill="var(--color-calendar-graph-day-L4-bg)" data-count="32" data-date="2020-01-04"/>   </g><g transform="translate(140, 0)">
    <rect class="day" width="10" height="10" x="4" y="0" fill="var(--color-calendar-graph-day-L2-bg)" data-count="9" data-date="2020-01-05"/>
    <rect class="day" width="10" height="10" x="4" y="13" fill="var(--color-calendar-graph-day-L2-bg)" data-count="12" data-date="2020-01-06"/>
    <rect class="day" width="10" height="10" x="4" y="26" fill="var(--color-calendar-graph-day-L2-bg)" data-count="8" data-date="2020-01-07"/>
    <rect class="day" width="10" height="10" x="4" y="39" fill="var(--color-calendar-graph-day-L1-bg)" data-count="5" data-date="2020-01-08"/>
    <rect class="day" width="10" height="10" x="4" y="52" fill="var(--color-calendar-graph-day-bg)" data-count="0" data-date="2020-01-09"/>
    <rect class="day" width="10" height="10" x="4" y="65" fill="var(--color-calendar-graph-day-L1-bg)" data-count="5" data-date="2020-01-10"/>
    <rect class="day" width="10" height="10" x="4" y="78" fill="var(--color-calendar-graph-day-L1-bg)" data-count="1" data-date="2020-01-11"/>   </g><g transform="translate(154, 0)">
    <rect class="day" width="10" height="10" x="3" y="0" fill="var(--color-calendar-graph-day-L1-bg)" data-count="3" data-date="2020-01-12"/>
    <rect class="day" width="10" height="10" x="3" y="13" fill="var(--color-calendar-graph-day-L1-bg)" data-count="5" data-date="2020-01-13"/>
    <rect class="day" width="10" height="10" x="3" y="26" fill="var(--color-calendar-graph-day-bg)" data-count="0" data-date="2020-01-14"/>
    <rect class="day" width="10" height="10" x="3" y="39" fill="var(--color-calendar-graph-day-L1-bg)" data-count="2" data-date="2020-01-15"/>
    <rect class="day" width="10" height="10" x="3" y="52" fill="var(--color-calendar-graph-day-L1-bg)" data-count="6" data-date="2020-01-16"/>
    <rect class="day" width="10" height="10" x="3" y="65" fill="var(--color-calendar-graph-day-L1-bg)" data-count="4" data-date="2020-01-17"/>
    <rect class="day" width="10" height="10" x="3" y="78" fill="var(--color-calendar-graph-day-L2-bg)" data-count="7" data-date="2020-01-18"/>   </g><g transform="translate(168, 0)">
    <rect class="day" width="10" height="10" x="2" y="0" fill="var(--color-calendar-graph-day-L1-bg)" data-count="5" data-date="2020-01-19"/>
    <rect class="day" width="10" height="10" x="2" y="13" fill="var(--color-calendar-graph-day-bg)" data-count="0" data-date="2020-01-20"/>
    <rect class="day" width="10" height="10" x="2" y="26" fill="var(--color-calendar-graph-day-bg)" data-count="0" data-date="2020-01-21"/>
    <rect class="day" width="10" height="10" x="2" y="39" fill="var(--color-calendar-graph-day-bg)" data-count="0" data-date="2020-01-22"/>
    <rect class="day" width="10" height="10" x="2" y="52" fill="var(--color-calendar-graph-day-bg)" data-count="0" data-date="2020-01-23"/>
    <rect class="day" width="10" height="10" x="2" y="65" fill="var(--color-calendar-graph-day-L1-bg)" data-count="4" data-date="2020-01-24"/>
    <rect class="day" width="10" height="10" x="2" y="78" fill="var(--color-calendar-graph-day-bg)" data-count="0" data-date="2020-01-25"/>   </g><g transform="translate(182, 0)">
    <rect class="day" width="10" height="10" x="1" y="0" fill="var(--color-calendar-graph-day-bg)" data-count="0" data-date="2020-01-26"/>
    <rect class="day" width="10" height="10" x="1" y="13" fill="var(--color-calendar-graph-day-L2-bg)" data-count="10" data-date="2020-01-27"/>
    <rect class="day" width="10" height="10" x="1" y="26" fill="var(--color-calendar-graph-day-L1-bg)" data-count="4" data-date="2020-01-28"/>
    <rect class="day" width="10" height="10" x="1" y="39" fill="var(--color-calendar-graph-day-L2-bg)" data-count="10" data-date="2020-01-29"/>
    <rect class="day" width="10" height="10" x="1" y="52" fill="var(--color-calendar-graph-day-L1-bg)" data-count="6" data-date="2020-01-30"/>
    <rect class="day" width="10" height="10" x="1" y="65" fill="var(--color-calendar-graph-day-bg)" data-count="0" data-date="2020-01-31"/>
    <rect class="day" width="10" height="10" x="1" y="78" fill="var(--color-calendar-graph-day-bg)" data-count="0" data-date="2020-02-01"/>   </g><g transform="translate(196, 0)">
    <rect class="day" width="10" height="10" x="0" y="0" fill="var(--color-calendar-graph-day-bg)" data-count="0" data-date="2020-02-02"/>
    <rect class="day" width="10" height="10" x="0" y="13" fill="var(--color-calendar-graph-day-bg)" data-count="0" data-date="2020-02-03"/>
    <rect class="day" width="10" height="10" x="0" y="26" fill="var(--color-calendar-graph-day-bg)" data-count="0" data-date="2020-02-04"/>
    <rect class="day" width="10" height="10" x="0" y="39" fill="var(--color-calendar-graph-day-bg)" data-count="0" data-date="2020-02-05"/>
    <rect class="day" width="10" height="10" x="0" y="52" fill="var(--color-calendar-graph-day-bg)" data-count="0" data-date="2020-02-06"/>
    <rect class="day" width="10" height="10" x="0" y="65" fill="var(--color-calendar-graph-day-bg)" data-count="0" data-date="2020-02-07"/>
    <rect class="day" width="10" height="10" x="0" y="78" fill="var(--color-calendar-graph-day-bg)" data-count="0" data-date="2020-02-08"/>   </g><g transform="translate(210, 0)">
    <rect class="day" width="10" height="10" x="-1" y="0" fill="var(--color-calendar-graph-day-bg)" data-count="0" data-date="2020-02-09"/>
    <rect class="day" width="10" height="10" x="-1" y="13" fill="var(--color-calendar-graph-day-bg)" data-count="0" data-date="2020-02-10"/>
    <rect class="day" width="10" height="10" x="-1" y="26" fill="var(--color-calendar-graph-day-bg)" data-count="0" data-date="2020-02-11"/>
    <rect class="day" width="10" height="10" x="-1" y="39" fill="var(--color-calendar-graph-day-bg)" data-count="0" data-date="2020-02-12"/>
    <rect class="day" width="10" height="10" x="-1" y="52" fill="var(--color-calendar-graph-day-bg)" data-count="0" data-date="2020-02-13"/>
    <rect class="day" width="10" height="10" x="-1" y="65" fill="var(--color-calendar-graph-day-bg)" data-count="0" data-date="2020-02-14"/>
    <rect class="day" width="10" height="10" x="-1" y="78" fill="var(--color-calendar-graph-day-L2-bg)" data-count="12" data-date="2020-02-15"/>   </g><g transform="translate(224, 0)">
    <rect class="day" width="10" height="10" x="-2" y="0" fill="var(--color-calendar-graph-day-L1-bg)" data-count="6" data-date="2020-02-16"/>
    <rect class="day" width="10" height="10" x="-2" y="13" fill="var(--color-calendar-graph-day-L2-bg)" data-count="8" data-date="2020-02-17"/>
    <rect class="day" width="10" height="10" x="-2" y="26" fill="var(--color-calendar-graph-day-L2-bg)" data-count="7" data-date="2020-02-18"/>
    <rect class="day" width="10" height="10" x="-2" y="39" fill="var(--color-calendar-graph-day-L1-bg)" data-count="6" data-date="2020-02-19"/>
    <rect class="day" width="10" height="10" x="-2" y="52" fill="var(--color-calendar-graph-day-L2-bg)" data-count="12" data-date="2020-02-20"/>
    <rect class="day" width="10" height="10" x="-2" y="65" fill="var(--color-calendar-graph-day-L1-bg)" data-count="6" data-date="2020-02-21"/>
    <rect class="day" width="10" height="10" x="-2" y="78" fill="var(--color-calendar-graph-day-L2-bg)" data-count="12" data-date="2020-02-22"/>   </g><g transform="translate(238, 0)">
    <rect class="day" width="10" height="10" x="-3" y="0" fill="var(--color-calendar-graph-day-L2-bg)" data-count="11" data-date="2020-02-23"/>
    <rect class="day" width="10" height="10" x="-3" y="13" fill="var(--color-calendar-graph-day-L1-bg)" data-count="4" data-date="2020-02-24"/>
    <rect class="day" width="10" height="10" x="-3" y="26" fill="var(--color-calendar-graph-day-bg)" data-count="0" data-date="2020-02-25"/>
    <rect class="day" width="10" height="10" x="-3" y="39" fill="var(--color-calendar-graph-day-L1-bg)" data-count="3" data-date="2020-02-26"/>
    <rect class="day" width="10" height="10" x="-3" y="52" fill="var(--color-calendar-graph-day-bg)" data-count="0" data-date="2020-02-27"/>
    <rect class="day" width="10" height="10" x="-3" y="65" fill="var(--color-calendar-graph-day-bg)" data-count="0" data-date="2020-02-28"/>
    <rect class="day" width="10" height="10" x="-3" y="78" fill="var(--color-calendar-graph-day-bg)" data-count="0" data-date="2020-02-29"/>   </g><g transform="translate(252, 0)">
    <rect class="day" width="10" height="10" x="-4" y="0" fill="var(--color-calendar-graph-day-L2-bg)" data-count="13" data-date="2020-03-01"/>
    <rect class="day" width="10" height="10" x="-4" y="13" fill="var(--color-calendar-graph-day-L3-bg)" data-count="15" data-date="2020-03-02"/>
    <rect class="day" width="10" height="10" x="-4" y="26" fill="var(--color-calendar-graph-day-L2-bg)" data-count="13" data-date="2020-03-03"/>
    <rect class="day" width="10" height="10" x="-4" y="39" fill="var(--color-calendar-graph-day-L3-bg)" data-count="17" data-date="2020-03-04"/>
    <rect class="day" width="10" height="10" x="-4" y="52" fill="var(--color-calendar-graph-day-bg)" data-count="0" data-date="2020-03-05"/>
    <rect class="day" width="10" height="10" x="-4" y="65" fill="var(--color-calendar-graph-day-L2-bg)" data-count="12" data-date="2020-03-06"/>
    <rect class="day" width="10" height="10" x="-4" y="78" fill="var(--color-calendar-graph-day-L3-bg)" data-count="15" data-date="2020-03-07"/>   </g><g transform="translate(266, 0)">
    <rect class="day" width="10" height="10" x="-5" y="0" fill="var(--color-calendar-graph-day-L2-bg)" data-count="10" data-date="2020-03-08"/>
    <rect class="day" width="10" height="10" x="-5" y="13" fill="var(--color-calendar-graph-day-L1-bg)" data-count="3" data-date="2020-03-09"/>
    <rect class="day" width="10" height="10" x="-5" y="26" fill="var(--color-calendar-graph-day-L2-bg)" data-count="7" data-date="2020-03-10"/>
    <rect class="day" width="10" height="10" x="-5" y="39" fill="var(--color-calendar-graph-day-L1-bg)" data-count="2" data-date="2020-03-11"/>
    <rect class="day" width="10" height="10" x="-5" y="52" fill="var(--color-calendar-graph-day-bg)" data-count="0" data-date="2020-03-12"/>
    <rect class="day" width="10" height="10" x="-5" y="65" fill="var(--color-calendar-graph-day-L1-bg)" data-count="2" data-date="2020-03-13"/>
    <rect class="day" width="10" height="10" x="-5" y="78" fill="var(--color-calendar-graph-day-L1-bg)" data-count="2" data-date="2020-03-14"/>   </g><g transform="translate(280, 0)">
    <rect class="day" width="10" height="10" x="-6" y="0" fill="var(--color-calendar-graph-day-L1-bg)" data-count="2" data-date="2020-03-15"/>
    <rect class="day" width="10" height="10" x="-6" y="13" fill="var(--color-calendar-graph-day-L1-bg)" data-count="6" data-date="2020-03-16"/>
    <rect class="day" width="10" height="10" x="-6" y="26" fill="var(--color-calendar-graph-day-L2-bg)" data-count="9" data-date="2020-03-17"/>
    <rect class="day" width="10" height="10" x="-6" y="39" fill="var(--color-calendar-graph-day-L2-bg)" data-count="8" data-date="2020-03-18"/>
    <rect class="day" width="10" height="10" x="-6" y="52" fill="var(--color-calendar-graph-day-L1-bg)" data-count="1" data-date="2020-03-19"/>
    <rect class="day" width="10" height="10" x="-6" y="65" fill="var(--color-calendar-graph-day-L1-bg)" data-count="5" data-date="2020-03-20"/>
    <rect class="day" width="10" height="10" x="-6" y="78" fill="var(--color-calendar-graph-day-L2-bg)" data-count="10" data-date="2020-03-21"/>   </g><g transform="translate(294, 0)">
    <rect class="day" width="10" height="10" x="-7" y="0" fill="var(--color-calendar-graph-day-L4-bg)" data-count="35" data-date="2020-03-22"/>
    <rect class="day" width="10" height="10" x="-7" y="13" fill="var(--color-calendar-graph-day-L2-bg)" data-count="8" data-date="2020-03-23"/>
    <rect class="day" width="10" height="10" x="-7" y="26" fill="var(--color-calendar-graph-day-L1-bg)" data-count="1" data-date="2020-03-24"/>
    <rect class="day" width="10" height="10" x="-7" y="39" fill="var(--color-calendar-graph-day-L2-bg)" data-count="10" data-date="2020-03-25"/>
    <rect class="day" width="10" height="10" x="-7" y="52" fill="var(--color-calendar-graph-day-L2-bg)" data-count="9" data-date="2020-03-26"/>
    <rect class="day" width="10" height="10" x="-7" y="65" fill="var(--color-calendar-graph-day-L2-bg)" data-count="9" data-date="2020-03-27"/>
    <rect class="day" width="10" height="10" x="-7" y="78" fill="var(--color-calendar-graph-day-L1-bg)" data-count="4" data-date="2020-03-28"/>   </g><g transform="translate(308, 0)">
    <rect class="day" width="10" height="10" x="-8" y="0" fill="var(--color-calendar-graph-day-L2-bg)" data-count="9" data-date="2020-03-29"/>
    <rect class="day" width="10" height="10" x="-8" y="13" fill="var(--color-calendar-graph-day-L2-bg)" data-count="8" data-date="2020-03-30"/>
    <rect class="day" width="10" height="10" x="-8" y="26" fill="var(--color-calendar-graph-day-L1-bg)" data-count="6" data-date="2020-03-31"/>
    <rect class="day" width="10" height="10" x="-8" y="39" fill="var(--color-calendar-graph-day-L1-bg)" data-count="2" data-date="2020-04-01"/>
    <rect class="day" width="10" height="10" x="-8" y="52" fill="var(--color-calendar-graph-day-L1-bg)" data-count="2" data-date="2020-04-02"/>
    <rect class="day" width="10" height="10" x="-8" y="65" fill="var(--color-calendar-graph-day-bg)" data-count="0" data-date="2020-04-03"/>
    <rect class="day" width="10" height="10" x="-8" y="78" fill="var(--color-calendar-graph-day-L1-bg)" data-count="1" data-date="2020-04-04"/>   </g><g transform="translate(322, 0)">
    <rect class="day" width="10" height="10" x="-9" y="0" fill="var(--color-calendar-graph-day-L1-bg)" data-count="1" data-date="2020-04-05"/>
    <rect class="day" width="10" height="10" x="-9" y="13" fill="var(--color-calendar-graph-day-bg)" data-count="0" data-date="2020-04-06"/>
    <rect class="day" width="10" height="10" x="-9" y="26" fill="var(--color-calendar-graph-day-L2-bg)" data-count="10" data-date="2020-04-07"/>
    <rect class="day" width="10" height="10" x="-9" y="39" fill="var(--color-calendar-graph-day-L1-bg)" data-count="3" data-date="2020-04-08"/>
    <rect class="day" width="10" height="10" x="-9" y="52" fill="var(--color-calendar-graph-day-L2-bg)" data-count="7" data-date="2020-04-09"/>
    <rect class="day" width="10" height="10" x="-9" y="65" fill="var(--color-calendar-graph-day-L2-bg)" data-count="9" data-date="2020-04-10"/>
    <rect class="day" width="10" height="10" x="-9" y="78" fill="var(--color-calendar-graph-day-L2-bg)" data-count="10" data-date="2020-04-11"/>   </g><g transform="translate(336, 0)">
    <rect class="day" width="10" height="10" x="-10" y="0" fill="var(--color-calendar-graph-day-L1-bg)" data-count="4" data-date="2020-04-12"/>
    <rect class="day" width="10" height="10" x="-10" y="13" fill="var(--color-calendar-graph-day-L2-bg)" data-count="9" data-date="2020-04-13"/>
    <rect class="day" width="10" height="10" x="-10" y="26" fill="var(--color-calendar-graph-day-L1-bg)" data-count="5" data-date="2020-04-14"/>
    <rect class="day" width="10" height="10" x="-10" y="39" fill="var(--color-calendar-graph-day-L1-bg)" data-count="2" data-date="2020-04-15"/>
    <rect class="day" width="10" height="10" x="-10" y="52" fill="var(--color-calendar-graph-day-L1-bg)" data-count="6" data-date="2020-04-16"/>
    <rect class="day" width="10" height="10" x="-10" y="65" fill="var(--color-calendar-graph-day-L2-bg)" data-count="7" data-date="2020-04-17"/>
    <rect class="day" width="10" height="10" x="-10" y="78" fill="var(--color-calendar-graph-day-L2-bg)" data-count="12" data-date="2020-04-18"/>   </g><g transform="translate(350, 0)">
    <rect class="day" width="10" height="10" x="-11" y="0" fill="var(--color-calendar-graph-day-L2-bg)" data-count="12" data-date="2020-04-19"/>
    <rect class="day" width="10" height="10" x="-11" y="13" fill="var(--color-calendar-graph-day-L3-bg)" data-count="17" data-date="2020-04-20"/>
    <rect class="day" width="10" height="10" x="-11" y="26" fill="var(--color-calendar-graph-day-L1-bg)" data-count="5" data-date="2020-04-21"/>
    <rect class="day" width="10" height="10" x="-11" y="39" fill="var(--color-calendar-graph-day-L3-bg)" data-count="14" data-date="2020-04-22"/>
    <rect class="day" width="10" height="10" x="-11" y="52" fill="var(--color-calendar-graph-day-L1-bg)" data-count="1" data-date="2020-04-23"/>
    <rect class="day" width="10" height="10" x="-11" y="65" fill="var(--color-calendar-graph-day-L1-bg)" data-count="4" data-date="2020-04-24"/>
    <rect class="day" width="10" height="10" x="-11" y="78" fill="var(--color-calendar-graph-day-L2-bg)" data-count="7" data-date="2020-04-25"/>   </g><g transform="translate(364, 0)">
    <rect class="day" width="10" height="10" x="-12" y="0" fill="var(--color-calendar-graph-day-L2-bg)" data-count="12" data-date="2020-04-26"/>
    <rect class="day" width="10" height="10" x="-12" y="13" fill="var(--color-calendar-graph-day-L1-bg)" data-count="6" data-date="2020-04-27"/>
    <rect class="day" width="10" height="10" x="-12" y="26" fill="var(--color-calendar-graph-day-L1-bg)" data-count="5" data-date="2020-04-28"/>
    <rect class="day" width="10" height="10" x="-12" y="39" fill="var(--color-calendar-graph-day-L1-bg)" data-count="2" data-date="2020-04-29"/>
    <rect class="day" width="10" height="10" x="-12" y="52" fill="var(--color-calendar-graph-day-L1-bg)" data-count="5" data-date="2020-04-30"/>
    <rect class="day" width="10" height="10" x="-12" y="65" fill="var(--color-calendar-graph-day-L1-bg)" data-count="1" data-date="2020-05-01"/>
    <rect class="day" width="10" height="10" x="-12" y="78" fill="var(--color-calendar-graph-day-L1-bg)" data-count="4" data-date="2020-05-02"/>   </g><g transform="translate(378, 0)">
    <rect class="day" width="10" height="10" x="-13" y="0" fill="var(--color-calendar-graph-day-L3-bg)" data-count="14" data-date="2020-05-03"/>
    <rect class="day" width="10" height="10" x="-13" y="13" fill="var(--color-calendar-graph-day-L2-bg)" data-count="11" data-date="2020-05-04"/>
    <rect class="day" width="10" height="10" x="-13" y="26" fill="var(--color-calendar-graph-day-L3-bg)" data-count="16" data-date="2020-05-05"/>
    <rect class="day" width="10" height="10" x="-13" y="39" fill="var(--color-calendar-graph-day-L2-bg)" data-count="7" data-date="2020-05-06"/>
    <rect class="day" width="10" height="10" x="-13" y="52" fill="var(--color-calendar-graph-day-L2-bg)" data-count="10" data-date="2020-05-07"/>
    <rect class="day" width="10" height="10" x="-13" y="65" fill="var(--color-calendar-graph-day-L1-bg)" data-count="2" data-date="2020-05-08"/>
    <rect class="day" width="10" height="10" x="-13" y="78" fill="var(--color-calendar-graph-day-L1-bg)" data-count="2" data-date="2020-05-09"/>   </g><g transform="translate(392, 0)">
    <rect class="day" width="10" height="10" x="-14" y="0" fill="var(--color-calendar-graph-day-L3-bg)" data-count="15" data-date="2020-05-10"/>
    <rect class="day" width="10" height="10" x="-14" y="13" fill="var(--color-calendar-graph-day-L1-bg)" data-count="4" data-date="2020-05-11"/>
    <rect class="day" width="10" height="10" x="-14" y="26" fill="var(--color-calendar-graph-day-L1-bg)" data-count="2" data-date="2020-05-12"/>
    <rect class="day" width="10" height="10" x="-14" y="39" fill="var(--color-calendar-graph-day-bg)" data-count="0" data-date="2020-05-13"/>
    <rect class="day" width="10" height="10" x="-14" y="52" fill="var(--color-calendar-graph-day-L1-bg)" data-count="1" data-date="2020-05-14"/>
    <rect class="day" width="10" height="10" x="-14" y="65" fill="var(--color-calendar-graph-day-L1-bg)" data-count="3" data-date="2020-05-15"/>
    <rect class="day" width="10" height="10" x="-14" y="78" fill="var(--color-calendar-graph-day-L1-bg)" data-count="4" data-date="2020-05-16"/>   </g><g transform="translate(406, 0)">
    <rect class="day" width="10" height="10" x="-15" y="0" fill="var(--color-calendar-graph-day-bg)" data-count="0" data-date="2020-05-17"/>
    <rect class="day" width="10" height="10" x="-15" y="13" fill="var(--color-calendar-graph-day-L2-bg)" data-count="7" data-date="2020-05-18"/>
    <rect class="day" width="10" height="10" x="-15" y="26" fill="var(--color-calendar-graph-day-L2-bg)" data-count="8" data-date="2020-05-19"/>
    <rect class="day" width="10" height="10" x="-15" y="39" fill="var(--color-calendar-graph-day-L2-bg)" data-count="11" data-date="2020-05-20"/>
    <rect class="day" width="10" height="10" x="-15" y="52" fill="var(--color-calendar-graph-day-L2-bg)" data-count="9" data-date="2020-05-21"/>
    <rect class="day" width="10" height="10" x="-15" y="65" fill="var(--color-calendar-graph-day-L1-bg)" data-count="2" data-date="2020-05-22"/>
    <rect class="day" width="10" height="10" x="-15" y="78" fill="var(--color-calendar-graph-day-L2-bg)" data-count="7" data-date="2020-05-23"/>   </g><g transform="translate(420, 0)">
    <rect class="day" width="10" height="10" x="-16" y="0" fill="var(--color-calendar-graph-day-L2-bg)" data-count="13" data-date="2020-05-24"/>
    <rect class="day" width="10" height="10" x="-16" y="13" fill="var(--color-calendar-graph-day-L2-bg)" data-count="7" data-date="2020-05-25"/>
    <rect class="day" width="10" height="10" x="-16" y="26" fill="var(--color-calendar-graph-day-L1-bg)" data-count="4" data-date="2020-05-26"/>
    <rect class="day" width="10" height="10" x="-16" y="39" fill="var(--color-calendar-graph-day-L4-bg)" data-count="22" data-date="2020-05-27"/>
    <rect class="day" width="10" height="10" x="-16" y="52" fill="var(--color-calendar-graph-day-L2-bg)" data-count="8" data-date="2020-05-28"/>
    <rect class="day" width="10" height="10" x="-16" y="65" fill="var(--color-calendar-graph-day-L3-bg)" data-count="14" data-date="2020-05-29"/>
    <rect class="day" width="10" height="10" x="-16" y="78" fill="var(--color-calendar-graph-day-L2-bg)" data-count="9" data-date="2020-05-30"/>   </g><g transform="translate(434, 0)">
    <rect class="day" width="10" height="10" x="-17" y="0" fill="var(--color-calendar-graph-day-L1-bg)" data-count="5" data-date="2020-05-31"/>
    <rect class="day" width="10" height="10" x="-17" y="13" fill="var(--color-calendar-graph-day-bg)" data-count="0" data-date="2020-06-01"/>
    <rect class="day" width="10" height="10" x="-17" y="26" fill="var(--color-calendar-graph-day-L1-bg)" data-count="4" data-date="2020-06-02"/>
    <rect class="day" width="10" height="10" x="-17" y="39" fill="var(--color-calendar-graph-day-L1-bg)" data-count="4" data-date="2020-06-03"/>
    <rect class="day" width="10" height="10" x="-17" y="52" fill="var(--color-calendar-graph-day-L1-bg)" data-count="5" data-date="2020-06-04"/>
    <rect class="day" width="10" height="10" x="-17" y="65" fill="var(--color-calendar-graph-day-L1-bg)" data-count="2" data-date="2020-06-05"/>
    <rect class="day" width="10" height="10" x="-17" y="78" fill="var(--color-calendar-graph-day-L1-bg)" data-count="2" data-date="2020-06-06"/>   </g><g transform="translate(448, 0)">
    <rect class="day" width="10" height="10" x="-18" y="0" fill="var(--color-calendar-graph-day-bg)" data-count="0" data-date="2020-06-07"/>
    <rect class="day" width="10" height="10" x="-18" y="13" fill="var(--color-calendar-graph-day-L1-bg)" data-count="3" data-date="2020-06-08"/>
    <rect class="day" width="10" height="10" x="-18" y="26" fill="var(--color-calendar-graph-day-L1-bg)" data-count="1" data-date="2020-06-09"/>
    <rect class="day" width="10" height="10" x="-18" y="39" fill="var(--color-calendar-graph-day-L2-bg)" data-count="7" data-date="2020-06-10"/>
    <rect class="day" width="10" height="10" x="-18" y="52" fill="var(--color-calendar-graph-day-L1-bg)" data-count="5" data-date="2020-06-11"/>
    <rect class="day" width="10" height="10" x="-18" y="65" fill="var(--color-calendar-graph-day-L1-bg)" data-count="5" data-date="2020-06-12"/>
    <rect class="day" width="10" height="10" x="-18" y="78" fill="var(--color-calendar-graph-day-L1-bg)" data-count="1" data-date="2020-06-13"/>   </g><g transform="translate(462, 0)">
    <rect class="day" width="10" height="10" x="-19" y="0" fill="var(--color-calendar-graph-day-L1-bg)" data-count="1" data-date="2020-06-14"/>
    <rect class="day" width="10" height="10" x="-19" y="13" fill="var(--color-calendar-graph-day-L1-bg)" data-count="3" data-date="2020-06-15"/>
    <rect class="day" width="10" height="10" x="-19" y="26" fill="var(--color-calendar-graph-day-L1-bg)" data-count="2" data-date="2020-06-16"/>
    <rect class="day" width="10" height="10" x="-19" y="39" fill="var(--color-calendar-graph-day-bg)" data-count="0" data-date="2020-06-17"/>
    <rect class="day" width="10" height="10" x="-19" y="52" fill="var(--color-calendar-graph-day-L2-bg)" data-count="11" data-date="2020-06-18"/>
    <rect class="day" width="10" height="10" x="-19" y="65" fill="var(--color-calendar-graph-day-bg)" data-count="0" data-date="2020-06-19"/>
    <rect class="day" width="10" height="10" x="-19" y="78" fill="var(--color-calendar-graph-day-L1-bg)" data-count="2" data-date="2020-06-20"/>   </g><g transform="translate(476, 0)">
    <rect class="day" width="10" height="10" x="-20" y="0" fill="var(--color-calendar-graph-day-L1-bg)" data-count="3" data-date="2020-06-21"/>
    <rect class="day" width="10" height="10" x="-20" y="13" fill="var(--color-calendar-graph-day-bg)" data-count="0" data-date="2020-06-22"/>
    <rect class="day" width="10" height="10" x="-20" y="26" fill="var(--color-calendar-graph-day-L3-bg)" data-count="14" data-date="2020-06-23"/>
    <rect class="day" width="10" height="10" x="-20" y="39" fill="var(--color-calendar-graph-day-L3-bg)" data-count="14" data-date="2020-06-24"/>
    <rect class="day" width="10" height="10" x="-20" y="52" fill="var(--color-calendar-graph-day-L2-bg)" data-count="11" data-date="2020-06-25"/>
    <rect class="day" width="10" height="10" x="-20" y="65" fill="var(--color-calendar-graph-day-bg)" data-count="0" data-date="2020-06-26"/>
    <rect class="day" width="10" height="10" x="-20" y="78" fill="var(--color-calendar-graph-day-L2-bg)" data-count="7" data-date="2020-06-27"/>   </g><g transform="translate(490, 0)">
    <rect class="day" width="10" height="10" x="-21" y="0" fill="var(--color-calendar-graph-day-L1-bg)" data-count="5" data-date="2020-06-28"/>
    <rect class="day" width="10" height="10" x="-21" y="13" fill="var(--color-calendar-graph-day-L3-bg)" data-count="17" data-date="2020-06-29"/>
    <rect class="day" width="10" height="10" x="-21" y="26" fill="var(--color-calendar-graph-day-L3-bg)" data-count="18" data-date="2020-06-30"/>
    <rect class="day" width="10" height="10" x="-21" y="39" fill="var(--color-calendar-graph-day-L1-bg)" data-count="4" data-date="2020-07-01"/>
    <rect class="day" width="10" height="10" x="-21" y="52" fill="var(--color-calendar-graph-day-L1-bg)" data-count="3" data-date="2020-07-02"/>
    <rect class="day" width="10" height="10" x="-21" y="65" fill="var(--color-calendar-graph-day-L1-bg)" data-count="5" data-date="2020-07-03"/>
    <rect class="day" width="10" height="10" x="-21" y="78" fill="var(--color-calendar-graph-day-L1-bg)" data-count="2" data-date="2020-07-04"/>   </g><g transform="translate(504, 0)">
    <rect class="day" width="10" height="10" x="-22" y="0" fill="var(--color-calendar-graph-day-L1-bg)" data-count="3" data-date="2020-07-05"/>
    <rect class="day" width="10" height="10" x="-22" y="13" fill="var(--color-calendar-graph-day-bg)" data-count="0" data-date="2020-07-06"/>
    <rect class="day" width="10" height="10" x="-22" y="26" fill="var(--color-calendar-graph-day-L2-bg)" data-count="9" data-date="2020-07-07"/>
    <rect class="day" width="10" height="10" x="-22" y="39" fill="var(--color-calendar-graph-day-L1-bg)" data-count="6" data-date="2020-07-08"/>
    <rect class="day" width="10" height="10" x="-22" y="52" fill="var(--color-calendar-graph-day-bg)" data-count="0" data-date="2020-07-09"/>
    <rect class="day" width="10" height="10" x="-22" y="65" fill="var(--color-calendar-graph-day-bg)" data-count="0" data-date="2020-07-10"/>
    <rect class="day" width="10" height="10" x="-22" y="78" fill="var(--color-calendar-graph-day-bg)" data-count="0" data-date="2020-07-11"/>   </g><g transform="translate(518, 0)">
    <rect class="day" width="10" height="10" x="-23" y="0" fill="var(--color-calendar-graph-day-bg)" data-count="0" data-date="2020-07-12"/>
    <rect class="day" width="10" height="10" x="-23" y="13" fill="var(--color-calendar-graph-day-L1-bg)" data-count="1" data-date="2020-07-13"/>
    <rect class="day" width="10" height="10" x="-23" y="26" fill="var(--color-calendar-graph-day-L1-bg)" data-count="6" data-date="2020-07-14"/>
    <rect class="day" width="10" height="10" x="-23" y="39" fill="var(--color-calendar-graph-day-bg)" data-count="0" data-date="2020-07-15"/>
    <rect class="day" width="10" height="10" x="-23" y="52" fill="var(--color-calendar-graph-day-bg)" data-count="0" data-date="2020-07-16"/>
    <rect class="day" width="10" height="10" x="-23" y="65" fill="var(--color-calendar-graph-day-L1-bg)" data-count="1" data-date="2020-07-17"/>
    <rect class="day" width="10" height="10" x="-23" y="78" fill="var(--color-calendar-graph-day-bg)" data-count="0" data-date="2020-07-18"/>   </g><g transform="translate(532, 0)">
    <rect class="day" width="10" height="10" x="-24" y="0" fill="var(--color-calendar-graph-day-L1-bg)" data-count="4" data-date="2020-07-19"/>
    <rect class="day" width="10" height="10" x="-24" y="13" fill="var(--color-calendar-graph-day-L1-bg)" data-count="6" data-date="2020-07-20"/>
    <rect class="day" width="10" height="10" x="-24" y="26" fill="var(--color-calendar-graph-day-L1-bg)" data-count="3" data-date="2020-07-21"/>
    <rect class="day" width="10" height="10" x="-24" y="39" fill="var(--color-calendar-graph-day-L1-bg)" data-count="1" data-date="2020-07-22"/>
    <rect class="day" width="10" height="10" x="-24" y="52" fill="var(--color-calendar-graph-day-L1-bg)" data-count="3" data-date="2020-07-23"/>
    <rect class="day" width="10" height="10" x="-24" y="65" fill="var(--color-calendar-graph-day-L1-bg)" data-count="2" data-date="2020-07-24"/>
    <rect class="day" width="10" height="10" x="-24" y="78" fill="var(--color-calendar-graph-day-L1-bg)" data-count="1" data-date="2020-07-25"/>   </g><g transform="translate(546, 0)">
    <rect class="day" width="10" height="10" x="-25" y="0" fill="var(--color-calendar-graph-day-L1-bg)" data-count="4" data-date="2020-07-26"/>
    <rect class="day" width="10" height="10" x="-25" y="13" fill="var(--color-calendar-graph-day-L1-bg)" data-count="5" data-date="2020-07-27"/>
    <rect class="day" width="10" height="10" x="-25" y="26" fill="var(--color-calendar-graph-day-L2-bg)" data-count="9" data-date="2020-07-28"/>
    <rect class="day" width="10" height="10" x="-25" y="39" fill="var(--color-calendar-graph-day-L3-bg)" data-count="14" data-date="2020-07-29"/>
    <rect class="day" width="10" height="10" x="-25" y="52" fill="var(--color-calendar-graph-day-L1-bg)" data-count="6" data-date="2020-07-30"/>
    <rect class="day" width="10" height="10" x="-25" y="65" fill="var(--color-calendar-graph-day-L2-bg)" data-count="9" data-date="2020-07-31"/>
    <rect class="day" width="10" height="10" x="-25" y="78" fill="var(--color-calendar-graph-day-L1-bg)" data-count="5" data-date="2020-08-01"/>   </g><g transform="translate(560, 0)">
    <rect class="day" width="10" height="10" x="-26" y="0" fill="var(--color-calendar-graph-day-L1-bg)" data-count="5" data-date="2020-08-02"/>
    <rect class="day" width="10" height="10" x="-26" y="13" fill="var(--color-calendar-graph-day-L2-bg)" data-count="10" data-date="2020-08-03"/>
    <rect class="day" width="10" height="10" x="-26" y="26" fill="var(--color-calendar-graph-day-L1-bg)" data-count="4" data-date="2020-08-04"/>
    <rect class="day" width="10" height="10" x="-26" y="39" fill="var(--color-calendar-graph-day-L2-bg)" data-count="7" data-date="2020-08-05"/>
    <rect class="day" width="10" height="10" x="-26" y="52" fill="var(--color-calendar-graph-day-L3-bg)" data-count="18" data-date="2020-08-06"/>
    <rect class="day" width="10" height="10" x="-26" y="65" fill="var(--color-calendar-graph-day-L1-bg)" data-count="4" data-date="2020-08-07"/>
    <rect class="day" width="10" height="10" x="-26" y="78" fill="var(--color-calendar-graph-day-L1-bg)" data-count="1" data-date="2020-08-08"/>   </g><g transform="translate(574, 0)">
    <rect class="day" width="10" height="10" x="-27" y="0" fill="var(--color-calendar-graph-day-L1-bg)" data-count="3" data-date="2020-08-09"/>
    <rect class="day" width="10" height="10" x="-27" y="13" fill="var(--color-calendar-graph-day-L1-bg)" data-count="3" data-date="2020-08-10"/>
    <rect class="day" width="10" height="10" x="-27" y="26" fill="var(--color-calendar-graph-day-L2-bg)" data-count="9" data-date="2020-08-11"/>
    <rect class="day" width="10" height="10" x="-27" y="39" fill="var(--color-calendar-graph-day-L1-bg)" data-count="1" data-date="2020-08-12"/>
    <rect class="day" width="10" height="10" x="-27" y="52" fill="var(--color-calendar-graph-day-L2-bg)" data-count="8" data-date="2020-08-13"/>
    <rect class="day" width="10" height="10" x="-27" y="65" fill="var(--color-calendar-graph-day-L2-bg)" data-count="7" data-date="2020-08-14"/>
    <rect class="day" width="10" height="10" x="-27" y="78" fill="var(--color-calendar-graph-day-bg)" data-count="0" data-date="2020-08-15"/>   </g><g transform="translate(588, 0)">
    <rect class="day" width="10" height="10" x="-28" y="0" fill="var(--color-calendar-graph-day-L1-bg)" data-count="2" data-date="2020-08-16"/>
    <rect class="day" width="10" height="10" x="-28" y="13" fill="var(--color-calendar-graph-day-L2-bg)" data-count="9" data-date="2020-08-17"/>
    <rect class="day" width="10" height="10" x="-28" y="26" fill="var(--color-calendar-graph-day-L3-bg)" data-count="19" data-date="2020-08-18"/>
    <rect class="day" width="10" height="10" x="-28" y="39" fill="var(--color-calendar-graph-day-L3-bg)" data-count="17" data-date="2020-08-19"/>
    <rect class="day" width="10" height="10" x="-28" y="52" fill="var(--color-calendar-graph-day-L1-bg)" data-count="6" data-date="2020-08-20"/>
    <rect class="day" width="10" height="10" x="-28" y="65" fill="var(--color-calendar-graph-day-L3-bg)" data-count="19" data-date="2020-08-21"/>
    <rect class="day" width="10" height="10" x="-28" y="78" fill="var(--color-calendar-graph-day-L1-bg)" data-count="2" data-date="2020-08-22"/>   </g><g transform="translate(602, 0)">
    <rect class="day" width="10" height="10" x="-29" y="0" fill="var(--color-calendar-graph-day-bg)" data-count="0" data-date="2020-08-23"/>
    <rect class="day" width="10" height="10" x="-29" y="13" fill="var(--color-calendar-graph-day-L4-bg)" data-count="32" data-date="2020-08-24"/>
    <rect class="day" width="10" height="10" x="-29" y="26" fill="var(--color-calendar-graph-day-L3-bg)" data-count="17" data-date="2020-08-25"/>
    <rect class="day" width="10" height="10" x="-29" y="39" fill="var(--color-calendar-graph-day-L2-bg)" data-count="11" data-date="2020-08-26"/>
    <rect class="day" width="10" height="10" x="-29" y="52" fill="var(--color-calendar-graph-day-L1-bg)" data-count="2" data-date="2020-08-27"/>
    <rect class="day" width="10" height="10" x="-29" y="65" fill="var(--color-calendar-graph-day-L3-bg)" data-count="16" data-date="2020-08-28"/>
    <rect class="day" width="10" height="10" x="-29" y="78" fill="var(--color-calendar-graph-day-bg)" data-count="0" data-date="2020-08-29"/>   </g><g transform="translate(616, 0)">
    <rect class="day" width="10" height="10" x="-30" y="0" fill="var(--color-calendar-graph-day-bg)" data-count="0" data-date="2020-08-30"/>
    <rect class="day" width="10" height="10" x="-30" y="13" fill="var(--color-calendar-graph-day-L1-bg)" data-count="6" data-date="2020-08-31"/>
    <rect class="day" width="10" height="10" x="-30" y="26" fill="var(--color-calendar-graph-day-L2-bg)" data-count="8" data-date="2020-09-01"/>
    <rect class="day" width="10" height="10" x="-30" y="39" fill="var(--color-calendar-graph-day-L3-bg)" data-count="17" data-date="2020-09-02"/>
    <rect class="day" width="10" height="10" x="-30" y="52" fill="var(--color-calendar-graph-day-L4-bg)" data-count="27" data-date="2020-09-03"/>
    <rect class="day" width="10" height="10" x="-30" y="65" fill="var(--color-calendar-graph-day-L4-bg)" data-count="21" data-date="2020-09-04"/>
    <rect class="day" width="10" height="10" x="-30" y="78" fill="var(--color-calendar-graph-day-bg)" data-count="0" data-date="2020-09-05"/>   </g><g transform="translate(630, 0)">
    <rect class="day" width="10" height="10" x="-31" y="0" fill="var(--color-calendar-graph-day-L1-bg)" data-count="3" data-date="2020-09-06"/>
    <rect class="day" width="10" height="10" x="-31" y="13" fill="var(--color-calendar-graph-day-L1-bg)" data-count="5" data-date="2020-09-07"/>
    <rect class="day" width="10" height="10" x="-31" y="26" fill="var(--color-calendar-graph-day-L1-bg)" data-count="3" data-date="2020-09-08"/>
    <rect class="day" width="10" height="10" x="-31" y="39" fill="var(--color-calendar-graph-day-L1-bg)" data-count="6" data-date="2020-09-09"/>
    <rect class="day" width="10" height="10" x="-31" y="52" fill="var(--color-calendar-graph-day-L2-bg)" data-count="7" data-date="2020-09-10"/>
    <rect class="day" width="10" height="10" x="-31" y="65" fill="var(--color-calendar-graph-day-L3-bg)" data-count="18" data-date="2020-09-11"/>
    <rect class="day" width="10" height="10" x="-31" y="78" fill="var(--color-calendar-graph-day-bg)" data-count="0" data-date="2020-09-12"/>   </g><g transform="translate(644, 0)">
    <rect class="day" width="10" height="10" x="-32" y="0" fill="var(--color-calendar-graph-day-L1-bg)" data-count="2" data-date="2020-09-13"/>
    <rect class="day" width="10" height="10" x="-32" y="13" fill="var(--color-calendar-graph-day-L1-bg)" data-count="4" data-date="2020-09-14"/>
    <rect class="day" width="10" height="10" x="-32" y="26" fill="var(--color-calendar-graph-day-L2-bg)" data-count="13" data-date="2020-09-15"/>
    <rect class="day" width="10" height="10" x="-32" y="39" fill="var(--color-calendar-graph-day-L3-bg)" data-count="16" data-date="2020-09-16"/>
    <rect class="day" width="10" height="10" x="-32" y="52" fill="var(--color-calendar-graph-day-bg)" data-count="0" data-date="2020-09-17"/>
    <rect class="day" width="10" height="10" x="-32" y="65" fill="var(--color-calendar-graph-day-L2-bg)" data-count="11" data-date="2020-09-18"/>
    <rect class="day" width="10" height="10" x="-32" y="78" fill="var(--color-calendar-graph-day-bg)" data-count="0" data-date="2020-09-19"/>   </g><g transform="translate(658, 0)">
    <rect class="day" width="10" height="10" x="-33" y="0" fill="var(--color-calendar-graph-day-bg)" data-count="0" data-date="2020-09-20"/>
    <rect class="day" width="10" height="10" x="-33" y="13" fill="var(--color-calendar-graph-day-L2-bg)" data-count="11" data-date="2020-09-21"/>
    <rect class="day" width="10" height="10" x="-33" y="26" fill="var(--color-calendar-graph-day-L2-bg)" data-count="11" data-date="2020-09-22"/>
    <rect class="day" width="10" height="10" x="-33" y="39" fill="var(--color-calendar-graph-day-L2-bg)" data-count="8" data-date="2020-09-23"/>
    <rect class="day" width="10" height="10" x="-33" y="52" fill="var(--color-calendar-graph-day-L2-bg)" data-count="13" data-date="2020-09-24"/>
    <rect class="day" width="10" height="10" x="-33" y="65" fill="var(--color-calendar-graph-day-L2-bg)" data-count="9" data-date="2020-09-25"/>
    <rect class="day" width="10" height="10" x="-33" y="78" fill="var(--color-calendar-graph-day-L1-bg)" data-count="1" data-date="2020-09-26"/>   </g><g transform="translate(672, 0)">
    <rect class="day" width="10" height="10" x="-34" y="0" fill="var(--color-calendar-graph-day-L2-bg)" data-count="7" data-date="2020-09-27"/>
    <rect class="day" width="10" height="10" x="-34" y="13" fill="var(--color-calendar-graph-day-L3-bg)" data-count="15" data-date="2020-09-28"/>
    <rect class="day" width="10" height="10" x="-34" y="26" fill="var(--color-calendar-graph-day-L4-bg)" data-count="22" data-date="2020-09-29"/>
    <rect class="day" width="10" height="10" x="-34" y="39" fill="var(--color-calendar-graph-day-L1-bg)" data-count="2" data-date="2020-09-30"/>
    <rect class="day" width="10" height="10" x="-34" y="52" fill="var(--color-calendar-graph-day-bg)" data-count="0" data-date="2020-10-01"/>
    <rect class="day" width="10" height="10" x="-34" y="65" fill="var(--color-calendar-graph-day-L1-bg)" data-count="5" data-date="2020-10-02"/>
    <rect class="day" width="10" height="10" x="-34" y="78" fill="var(--color-calendar-graph-day-L1-bg)" data-count="3" data-date="2020-10-03"/>   </g><g transform="translate(686, 0)">
    <rect class="day" width="10" height="10" x="-35" y="0" fill="var(--color-calendar-graph-day-L1-bg)" data-count="4" data-date="2020-10-04"/>
    <rect class="day" width="10" height="10" x="-35" y="13" fill="var(--color-calendar-graph-day-bg)" data-count="0" data-date="2020-10-05"/>
    <rect class="day" width="10" height="10" x="-35" y="26" fill="var(--color-calendar-graph-day-bg)" data-count="0" data-date="2020-10-06"/>
    <rect class="day" width="10" height="10" x="-35" y="39" fill="var(--color-calendar-graph-day-L1-bg)" data-count="2" data-date="2020-10-07"/>
    <rect class="day" width="10" height="10" x="-35" y="52" fill="var(--color-calendar-graph-day-L2-bg)" data-count="8" data-date="2020-10-08"/>
    <rect class="day" width="10" height="10" x="-35" y="65" fill="var(--color-calendar-graph-day-bg)" data-count="0" data-date="2020-10-09"/>
    <rect class="day" width="10" height="10" x="-35" y="78" fill="var(--color-calendar-graph-day-bg)" data-count="0" data-date="2020-10-10"/>   </g><g transform="translate(700, 0)">
    <rect class="day" width="10" height="10" x="-36" y="0" fill="var(--color-calendar-graph-day-bg)" data-count="0" data-date="2020-10-11"/>
    <rect class="day" width="10" height="10" x="-36" y="13" fill="var(--color-calendar-graph-day-L1-bg)" data-count="1" data-date="2020-10-12"/>
    <rect class="day" width="10" height="10" x="-36" y="26" fill="var(--color-calendar-graph-day-bg)" data-count="0" data-date="2020-10-13"/>
    <rect class="day" width="10" height="10" x="-36" y="39" fill="var(--color-calendar-graph-day-L2-bg)" data-count="12" data-date="2020-10-14"/>
    <rect class="day" width="10" height="10" x="-36" y="52" fill="var(--color-calendar-graph-day-L3-bg)" data-count="18" data-date="2020-10-15"/>
    <rect class="day" width="10" height="10" x="-36" y="65" fill="var(--color-calendar-graph-day-L1-bg)" data-count="3" data-date="2020-10-16"/>
    <rect class="day" width="10" height="10" x="-36" y="78" fill="var(--color-calendar-graph-day-L4-bg)" data-count="21" data-date="2020-10-17"/>   </g><g transform="translate(714, 0)">
    <rect class="day" width="10" height="10" x="-37" y="0" fill="var(--color-calendar-graph-day-L1-bg)" data-count="4" data-date="2020-10-18"/>
    <rect class="day" width="10" height="10" x="-37" y="13" fill="var(--color-calendar-graph-day-L2-bg)" data-count="12" data-date="2020-10-19"/>
    <rect class="day" width="10" height="10" x="-37" y="26" fill="var(--color-calendar-graph-day-L1-bg)" data-count="3" data-date="2020-10-20"/>
    <rect class="day" width="10" height="10" x="-37" y="39" fill="var(--color-calendar-graph-day-L1-bg)" data-count="3" data-date="2020-10-21"/>
    <rect class="day" width="10" height="10" x="-37" y="52" fill="var(--color-calendar-graph-day-L1-bg)" data-count="2" data-date="2020-10-22"/>
    <rect class="day" width="10" height="10" x="-37" y="65" fill="var(--color-calendar-graph-day-L2-bg)" data-count="7" data-date="2020-10-23"/>
    <rect class="day" width="10" height="10" x="-37" y="78" fill="var(--color-calendar-graph-day-bg)" data-count="0" data-date="2020-10-24"/>   </g><g transform="translate(728, 0)">
    <rect class="day" width="10" height="10" x="-38" y="0" fill="var(--color-calendar-graph-day-L1-bg)" data-count="2" data-date="2020-10-25"/>
    <rect class="day" width="10" height="10" x="-38" y="13" fill="var(--color-calendar-graph-day-L4-bg)" data-count="26" data-date="2020-10-26"/>
    <rect class="day" width="10" height="10" x="-38" y="26" fill="var(--color-calendar-graph-day-L4-bg)" data-count="27" data-date="2020-10-27"/>
    <rect class="day" width="10" height="10" x="-38" y="39" fill="var(--color-calendar-graph-day-L2-bg)" data-count="8" data-date="2020-10-28"/>
    <rect class="day" width="10" height="10" x="-38" y="52" fill="var(--color-calendar-graph-day-L1-bg)" data-count="5" data-date="2020-10-29"/>
    <rect class="day" width="10" height="10" x="-38" y="65" fill="var(--color-calendar-graph-day-L1-bg)" data-count="4" data-date="2020-10-30"/>   </g>                                                                                                                                                                  <text x="27" y="-7" class="month">Nov</text>   <text x="79" y="-7" class="month">Dec</text>   <text x="144" y="-7" class="month">Jan</text>   <text x="196" y="-7" class="month">Feb</text>   <text x="248" y="-7" class="month">Mar</text>   <text x="313" y="-7" class="month">Apr</text>   <text x="365" y="-7" class="month">May</text>   <text x="430" y="-7" class="month">Jun</text>   <text x="482" y="-7" class="month">Jul</text>   <text x="534" y="-7" class="month">Aug</text>   <text x="599" y="-7" class="month">Sep</text>   <text x="651" y="-7" class="month">Oct</text> <text text-anchor="start" class="wday" dx="-10" dy="8" style="display: none;">Sun</text> <text text-anchor="start" class="wday" dx="-10" dy="22">Mon</text> <text text-anchor="start" class="wday" dx="-10" dy="32" style="display: none;">Tue</text> <text text-anchor="start" class="wday" dx="-10" dy="48">Wed</text> <text text-anchor="start" class="wday" dx="-10" dy="57" style="display: none;">Thu</text> <text text-anchor="start" class="wday" dx="-10" dy="73">Fri</text> <text text-anchor="start" class="wday" dx="-10" dy="81" style="display: none;">Sat</text>
</g></svg>